<?xml version="1.0" encoding="UTF-8"?>
<svg id="Layer_1" xmlns="http://www.w3.org/2000/svg" version="1.1" viewBox="0 0 576 512">
  <!-- Generator: Adobe Illustrator 30.8.1, SVG Export Plug-In . SVG Version: 2.1.4 Build 1)  -->
  <path d="M505.9,237.8c4-11.9,6.1-24.6,6.1-37.8,0-66.3-53.7-120-120-120-11.5,0-22.7,1.6-33.3,4.7-29.3-32.3-71.6-52.7-118.7-52.7-88.4,0-160,71.6-160,160,0,4.9.3,9.8.7,14.6C32.9,230.1,0,279.2,0,336c0,79.5,64.5,144,144,144h79.23v-48h-79.23c-53,0-96-43-96-96,0-42.7,27.9-79,66.6-91.4,11.8-3.8,18.8-16,16.1-28.1-1.8-7.9-2.7-16.1-2.7-24.5,0-61.9,50.1-112,112-112l.1.1c37.6,0,71,18.5,91.3,47.1,6.7,9.5,19.3,12.8,29.8,7.8,9.3-4.4,19.7-6.9,30.8-6.9,39.8,0,72,32.2,72,72,0,14.1-4,27.2-11,38.3-4.1,6.5-4.9,14.6-2,21.7,2.9,7.1,9,12.4,16.5,14.3,34.8,8.7,60.5,40.2,60.5,77.6,0,44.2-35.8,80-80,80h-94.77v48h94.77c70.7,0,128-57.3,128-128,0-49.9-28.5-93.1-70.1-114.2Z"/>
  <polygon points="287.31 268.83 201.67 354.48 235.61 388.42 264.23 359.81 264.23 432 264.23 480 264.23 501.46 312.23 501.46 312.23 480 312.23 432 312.23 361.63 338.98 388.38 372.92 354.44 287.31 268.83"/>
</svg>
